<mxfile host="app.diagrams.net" agent="Mozilla/5.0 (Windows NT 10.0; Win64; x64) AppleWebKit/537.36 (KHTML, like Gecko) Chrome/133.0.0.0 Safari/537.36" version="26.0.16">
  <diagram name="Page-1" id="Y7vyTCa_uENMa-VKctG6">
    <mxGraphModel dx="1467" dy="710" grid="0" gridSize="10" guides="1" tooltips="1" connect="1" arrows="1" fold="1" page="1" pageScale="1" pageWidth="850" pageHeight="1100" math="0" shadow="0">
      <root>
        <mxCell id="0" />
        <mxCell id="1" parent="0" />
        <mxCell id="7D-dPV7SOHnn52JqsAqx-11" value="Dolt Labs DBStore LocalStorage Wrapper Architecture" style="text;html=1;align=center;verticalAlign=middle;resizable=0;points=[];autosize=1;strokeColor=none;fillColor=none;" vertex="1" parent="1">
          <mxGeometry x="176.5" y="454" width="307" height="26" as="geometry" />
        </mxCell>
        <mxCell id="7D-dPV7SOHnn52JqsAqx-12" value="" style="group" vertex="1" connectable="0" parent="1">
          <mxGeometry x="150" y="90" width="360" height="320" as="geometry" />
        </mxCell>
        <mxCell id="7D-dPV7SOHnn52JqsAqx-8" style="edgeStyle=orthogonalEdgeStyle;rounded=0;orthogonalLoop=1;jettySize=auto;html=1;exitX=1;exitY=0.5;exitDx=0;exitDy=0;entryX=0;entryY=0.5;entryDx=0;entryDy=0;startArrow=blockThin;startFill=1;endArrow=blockThin;endFill=1;" edge="1" parent="7D-dPV7SOHnn52JqsAqx-12" source="7D-dPV7SOHnn52JqsAqx-1" target="7D-dPV7SOHnn52JqsAqx-2">
          <mxGeometry relative="1" as="geometry" />
        </mxCell>
        <mxCell id="7D-dPV7SOHnn52JqsAqx-1" value="Application&lt;div&gt;(Consumer)&lt;/div&gt;" style="rounded=0;whiteSpace=wrap;html=1;fillColor=#dae8fc;strokeColor=#6c8ebf;" vertex="1" parent="7D-dPV7SOHnn52JqsAqx-12">
          <mxGeometry width="160" height="60" as="geometry" />
        </mxCell>
        <mxCell id="7D-dPV7SOHnn52JqsAqx-9" style="edgeStyle=orthogonalEdgeStyle;rounded=0;orthogonalLoop=1;jettySize=auto;html=1;exitX=0.5;exitY=1;exitDx=0;exitDy=0;entryX=0.5;entryY=0;entryDx=0;entryDy=0;" edge="1" parent="7D-dPV7SOHnn52JqsAqx-12" source="7D-dPV7SOHnn52JqsAqx-2" target="7D-dPV7SOHnn52JqsAqx-3">
          <mxGeometry relative="1" as="geometry" />
        </mxCell>
        <mxCell id="7D-dPV7SOHnn52JqsAqx-2" value="DoltLabs DBStore&lt;div&gt;(Main API)&lt;/div&gt;" style="rounded=0;whiteSpace=wrap;html=1;fillColor=#d5e8d4;strokeColor=#82b366;" vertex="1" parent="7D-dPV7SOHnn52JqsAqx-12">
          <mxGeometry x="200" width="160" height="60" as="geometry" />
        </mxCell>
        <mxCell id="7D-dPV7SOHnn52JqsAqx-10" style="edgeStyle=orthogonalEdgeStyle;rounded=0;orthogonalLoop=1;jettySize=auto;html=1;exitX=0.5;exitY=1;exitDx=0;exitDy=0;entryX=0.5;entryY=0;entryDx=0;entryDy=0;" edge="1" parent="7D-dPV7SOHnn52JqsAqx-12" source="7D-dPV7SOHnn52JqsAqx-3" target="7D-dPV7SOHnn52JqsAqx-4">
          <mxGeometry relative="1" as="geometry" />
        </mxCell>
        <mxCell id="7D-dPV7SOHnn52JqsAqx-3" value="StorageWrapper&lt;div&gt;(localStorage Abstraction)&lt;/div&gt;" style="rounded=0;whiteSpace=wrap;html=1;fillColor=#ffe6cc;strokeColor=#d79b00;" vertex="1" parent="7D-dPV7SOHnn52JqsAqx-12">
          <mxGeometry x="200" y="100" width="160" height="60" as="geometry" />
        </mxCell>
        <mxCell id="7D-dPV7SOHnn52JqsAqx-7" value="á¹„" style="group;fillColor=#f8cecc;strokeColor=#b85450;container=0;" vertex="1" connectable="0" parent="7D-dPV7SOHnn52JqsAqx-12">
          <mxGeometry x="200" y="200" width="160" height="120" as="geometry" />
        </mxCell>
        <mxCell id="7D-dPV7SOHnn52JqsAqx-4" value="" style="rounded=0;whiteSpace=wrap;html=1;fillColor=#f8cecc;strokeColor=#b85450;" vertex="1" parent="7D-dPV7SOHnn52JqsAqx-12">
          <mxGeometry x="200" y="200" width="160" height="120" as="geometry" />
        </mxCell>
        <mxCell id="7D-dPV7SOHnn52JqsAqx-5" value="localstorage" style="rounded=0;whiteSpace=wrap;html=1;fillColor=#e1d5e7;strokeColor=#9673a6;" vertex="1" parent="7D-dPV7SOHnn52JqsAqx-12">
          <mxGeometry x="220" y="240" width="120" height="60" as="geometry" />
        </mxCell>
        <mxCell id="7D-dPV7SOHnn52JqsAqx-6" value="Browser (Chrome, etc.)" style="text;html=1;align=center;verticalAlign=middle;resizable=0;points=[];autosize=1;strokeColor=none;fillColor=none;" vertex="1" parent="7D-dPV7SOHnn52JqsAqx-12">
          <mxGeometry x="205" y="210" width="150" height="30" as="geometry" />
        </mxCell>
      </root>
    </mxGraphModel>
  </diagram>
</mxfile>
